[   2s] CDP targets: 1
[   2s]   page: file:///C:/Users/runneradmin/AppData/Local/Programs/ComfyUI/resources/desktop-ui/index.html#/not-supported | ComfyUI
[   3s] Main page: file:///C:/Users/runneradmin/AppData/Local/Programs/ComfyUI/resources/desktop-ui/index.html#/not-supported | ComfyUI
[   3s] Buttons: ['Learn More', 'Report Issue', 'Continue']
[   3s]   wizard: COMFY_TEST_GPU=0 platform=win32 preferred=['CPU']
[   6s]   clicked [BTN|Continue]
[   9s]   url: file:///C:/Users/runneradmin/AppData/Local/Programs/ComfyUI/resources/desktop-ui/index.html#/not-supported -> file:///C:/Users/runneradmin/AppData/Local/Programs/ComfyUI/resources/desktop-ui/index.html#/install
[   9s]   clicked [TILE|CPU]
[  13s]   clicked [BTN|Next]
[  20s]   clicked [BTN|Next]
[  24s]   clicked [BTN|Install]
[  27s]   url: file:///C:/Users/runneradmin/AppData/Local/Programs/ComfyUI/resources/desktop-ui/index.html#/install -> file:///C:/Users/runneradmin/AppData/Local/Programs/ComfyUI/resources/desktop-ui/index.html#/server-start
[ 141s]   /system_stats up after 137s
[ 141s]   app: waiting for backend stability (continuous /system_stats up for 30s)
[ 141s]   app: /system_stats up; awaiting 30s of stability
[ 172s]   app: backend stable for 30s; proceeding
[ 172s]   capturing canvas load...
[ 180s]   post: waiting for Cloud upsell
[ 213s]   post: Cloud upsell not found, skipping
[ 213s]   post: pressed Escape (Cloud upsell fallback)
[ 215s]   post: waiting for Close Templates
[ 227s]   post: Close Templates not found, skipping
[ 227s]   post: pressed Escape (Close Templates fallback)
[ 229s]   post: waiting for Extensions
[ 230s]   post: clicked Extensions via [button[aria-label="Extensions"]:visible]
[ 232s]   ext: node meta = display='SAM3' publisher='pznodes' version='0.1.15'
[ 235s]   ext: searching "SAM3"
[ 238s]   ext: clicking SAM3 by pznodes tile
[ 242s]   ext: scrolling to + opening version selector
[ 245s]   ext: selected 0.1.15
[ 247s]   ext: clicking right-panel Install
[ 248s]   ext: clicked Install (last of 8 visible)
[ 256s]   ext: waiting for "Apply Changes" toast
[ 257s]   ext: clicked Apply Changes
[ 262s]   app: Apply Changes already triggered in-app restart, skipping pkill
[ 267s]   app: relaunching with CDP
[ 267s]   app: waiting for CDP
[ 268s]   app: CDP up after 1s
[ 268s]   app: reconnecting Playwright
[ 269s]   app: attached to http://127.0.0.1:8000/
[ 456s]   app: server ready after 46s
[ 456s]   app: waiting for main canvas (window.app.graph)
[ 456s]   app: canvas ready after 1s (http://127.0.0.1:8000/)
[ 461s]   app: forcing renderer reload to refresh node-pack manifest
[ 464s]   app: canvas re-ready after reload in 3s
[ 468s]   ext: closing Nodes Manager dialog
[ 468s]   ext: dismissing What's New popup
[ 468s]   ext: closed What's New popup
[ 470s]   ext: dismissing Node Pack Issues modal (if present)
[ 471s]   ext: closed Node Pack Issues modal
[ 473s]   ext: opening Templates sidebar
[ 474s]   ext: clicked Templates
[ 478s]   ext: locating "comfyui-sam3" section in Templates panel
[ 480s]   ext: clicked comfyui-sam3 section
[ 482s]   ext: fetching comfy-test.toml from https://raw.githubusercontent.com/PozzettiAndrea/ComfyUI-SAM3/dev/comfy-test.toml
[ 482s]   ext: cpu spec = exclude ['video_point_prompt']
[ 482s]   ext: picking first matching comfyui-sam3 template
[ 482s]   ext: 5 visible cards
[ 484s]   ext: clicked template image_seg_point
[ 489s]   ext: installing WS execution listener
[ 489s]   ext: clicking Run
[ 490s]   ext: clicked Run
[ 490s]   ext: waiting for execution_success / execution_error
[ 592s]   ext: WS events=214 elapsed=102s
[ 592s]     ws: {'type': 'progress_state', 'ts': 1778343700429}
[ 592s]     ws: {'type': 'progress_state', 'ts': 1778343700433}
[ 592s]     ws: {'type': 'executing', 'ts': 1778343700433}
[ 592s]     ws: {'type': 'progress_state', 'ts': 1778343779071}
[ 592s]     ws: {'type': 'progress_state', 'ts': 1778343779074}
[ 592s]     ws: {'type': 'executing', 'ts': 1778343779084}
[ 592s]     ws: {'type': 'executed', 'ts': 1778343779187}
[ 592s]     ws: {'type': 'progress_state', 'ts': 1778343779204}
[ 592s]     ws: {'type': 'progress_state', 'ts': 1778343779206}
[ 592s]     ws: {'type': 'executing', 'ts': 1778343779206}
[ 592s]     ws: {'type': 'executed', 'ts': 1778343779273}
[ 592s]     ws: {'type': 'progress_state', 'ts': 1778343779277}
[ 592s]     ws: {'type': 'execution_success', 'ts': 1778343779295}
[ 592s]     ws: {'type': 'status', 'ts': 1778343779312}
[ 592s]     ws: {'type': 'executing', 'ts': 1778343779312}
[ 592s]   ext: execution_success after 102s
[ 597s]   ext: fetching comfy-test.toml from https://raw.githubusercontent.com/PozzettiAndrea/ComfyUI-SAM3/dev/comfy-test.toml
[ 597s]   ext: cpu spec = exclude ['video_point_prompt']
[ 597s]   loop: workflows/ from PozzettiAndrea/ComfyUI-SAM3@dev -> ['image_seg_point', 'image_seg_text', 'scene_seg', 'scene_seg_interactive', 'video_point_prompt']
[ 597s]   loop: spec=exclude items=['video_point_prompt'] -> 4 workflow(s) ['image_seg_point', 'image_seg_text', 'scene_seg', 'scene_seg_interactive']
[ 597s]   loop: matching=4 first_ran='image_seg_point' remaining=3 -> ['image_seg_text', 'scene_seg', 'scene_seg_interactive']
[ 597s]   loop: full restart for workflow 2/4 (image_seg_text)
[ 597s]   loop: closing current browser
[ 597s]   loop: killing ComfyUI process
[ 603s]   loop: launching ComfyUI with --remote-debugging-port=0
[ 603s]   loop: waiting for DevToolsActivePort at C:\Users\runneradmin\AppData\Roaming\ComfyUI\DevToolsActivePort
[ 606s]   loop: DevToolsActivePort -> 53083 after 4s
[ 606s]   loop: reconnecting Playwright on port 53083
[ 606s]   loop: attached to file:///C:/Users/runneradmin/AppData/Local/Programs/ComfyUI/resources/desktop-ui/index.html#/desktop-start
[ 606s]   loop: server ready after 1s
[ 631s]   loop: canvas ready after 21s
[ 631s]   loop: forcing renderer reload
[ 633s]   loop: canvas ready after 2s
[ 636s]   ext: closing Nodes Manager dialog
[ 636s]   ext: dismissing What's New popup
[ 636s]   ext: What's New popup not present
[ 636s]   ext: dismissing Node Pack Issues modal (if present)
[ 636s]   ext: Node Pack Issues modal not present
[ 636s]   ext: opening Templates sidebar
[ 637s]   ext: clicked Templates
[ 641s]   ext: locating "comfyui-sam3" section in Templates panel
[ 643s]   ext: clicked comfyui-sam3 section
[ 645s]   ext: clicking template image_seg_text
[ 647s]   ext: clicked template image_seg_text
[ 652s]   ext: installing WS execution listener
[ 652s]   ext: clicking Run
[ 653s]   ext: clicked Run
[ 653s]   ext: waiting for execution_success / execution_error
[ 733s]   ext: WS events=24 elapsed=80s
[ 733s]     ws: {'type': 'progress_state', 'ts': 1778343847824}
[ 733s]     ws: {'type': 'progress_state', 'ts': 1778343847827}
[ 733s]     ws: {'type': 'executing', 'ts': 1778343847838}
[ 733s]     ws: {'type': 'progress_state', 'ts': 1778343919665}
[ 733s]     ws: {'type': 'progress_state', 'ts': 1778343919668}
[ 733s]     ws: {'type': 'executing', 'ts': 1778343919680}
[ 733s]     ws: {'type': 'executed', 'ts': 1778343919963}
[ 733s]     ws: {'type': 'progress_state', 'ts': 1778343919965}
[ 733s]     ws: {'type': 'progress_state', 'ts': 1778343919982}
[ 733s]     ws: {'type': 'executing', 'ts': 1778343919983}
[ 733s]     ws: {'type': 'executed', 'ts': 1778343920048}
[ 733s]     ws: {'type': 'progress_state', 'ts': 1778343920051}
[ 733s]     ws: {'type': 'execution_success', 'ts': 1778343920055}
[ 733s]     ws: {'type': 'status', 'ts': 1778343920057}
[ 733s]     ws: {'type': 'executing', 'ts': 1778343920057}
[ 733s]   ext: execution_success after 80s
[ 738s]   loop: full restart for workflow 3/4 (scene_seg)
[ 738s]   loop: closing current browser
[ 738s]   loop: killing ComfyUI process
[ 743s]   loop: launching ComfyUI with --remote-debugging-port=0
[ 743s]   loop: waiting for DevToolsActivePort at C:\Users\runneradmin\AppData\Roaming\ComfyUI\DevToolsActivePort
[ 744s]   loop: DevToolsActivePort -> 53338 after 2s
[ 744s]   loop: reconnecting Playwright on port 53338
[ 745s]   loop: attached to file:///C:/Users/runneradmin/AppData/Local/Programs/ComfyUI/resources/desktop-ui/index.html#/desktop-start
[ 745s]   loop: server ready after 1s
[ 769s]   loop: canvas ready after 21s
[ 769s]   loop: forcing renderer reload
[ 772s]   loop: canvas ready after 2s
[ 775s]   ext: closing Nodes Manager dialog
[ 775s]   ext: dismissing What's New popup
[ 775s]   ext: What's New popup not present
[ 775s]   ext: dismissing Node Pack Issues modal (if present)
[ 775s]   ext: Node Pack Issues modal not present
[ 775s]   ext: opening Templates sidebar
[ 776s]   ext: clicked Templates
[ 780s]   ext: locating "comfyui-sam3" section in Templates panel
[ 781s]   ext: clicked comfyui-sam3 section
[ 784s]   ext: clicking template scene_seg
[ 785s]   ext: clicked template scene_seg
[ 790s]   ext: installing WS execution listener
[ 790s]   ext: clicking Run
[ 791s]   ext: clicked Run
[ 791s]   ext: waiting for execution_success / execution_error
[ 889s]   ext: WS events=55 elapsed=98s
[ 889s]     ws: {'type': 'executing', 'ts': 1778344073854}
[ 889s]     ws: {'type': 'progress_state', 'ts': 1778344074199}
[ 889s]     ws: {'type': 'progress_state', 'ts': 1778344074213}
[ 889s]     ws: {'type': 'executing', 'ts': 1778344074232}
[ 889s]     ws: {'type': 'progress_state', 'ts': 1778344074382}
[ 889s]     ws: {'type': 'progress_state', 'ts': 1778344074385}
[ 889s]     ws: {'type': 'executing', 'ts': 1778344074386}
[ 889s]     ws: {'type': 'progress_state', 'ts': 1778344075132}
[ 889s]     ws: {'type': 'progress_state', 'ts': 1778344075137}
[ 889s]     ws: {'type': 'executing', 'ts': 1778344075137}
[ 889s]     ws: {'type': 'executed', 'ts': 1778344075457}
[ 889s]     ws: {'type': 'progress_state', 'ts': 1778344075460}
[ 889s]     ws: {'type': 'execution_success', 'ts': 1778344075464}
[ 889s]     ws: {'type': 'status', 'ts': 1778344075465}
[ 889s]     ws: {'type': 'executing', 'ts': 1778344075466}
[ 889s]   ext: execution_success after 98s
[ 894s]   loop: full restart for workflow 4/4 (scene_seg_interactive)
[ 894s]   loop: closing current browser
[ 894s]   loop: killing ComfyUI process
[ 899s]   loop: launching ComfyUI with --remote-debugging-port=0
[ 899s]   loop: waiting for DevToolsActivePort at C:\Users\runneradmin\AppData\Roaming\ComfyUI\DevToolsActivePort
[ 901s]   loop: DevToolsActivePort parse err: [Errno 13] Permission denied: 'C:\\Users\\runneradmin\\AppData\\Roaming\\ComfyUI\\DevToolsActivePort'
[ 902s]   loop: DevToolsActivePort -> 53597 after 3s
[ 902s]   loop: reconnecting Playwright on port 53597
[ 903s]   loop: attached to file:///C:/Users/runneradmin/AppData/Local/Programs/ComfyUI/resources/desktop-ui/index.html#/desktop-start
[ 903s]   loop: server ready after 1s
[ 929s]   loop: canvas ready after 21s
[ 929s]   loop: forcing renderer reload
[ 931s]   loop: canvas ready after 2s
[ 934s]   ext: closing Nodes Manager dialog
[ 934s]   ext: dismissing What's New popup
[ 934s]   ext: What's New popup not present
[ 934s]   ext: dismissing Node Pack Issues modal (if present)
[ 934s]   ext: Node Pack Issues modal not present
[ 934s]   ext: opening Templates sidebar
[ 935s]   ext: clicked Templates
[ 939s]   ext: locating "comfyui-sam3" section in Templates panel
[ 941s]   ext: clicked comfyui-sam3 section
[ 943s]   ext: clicking template scene_seg_interactive
[ 945s]   ext: clicked template scene_seg_interactive
[ 950s]   ext: installing WS execution listener
[ 950s]   ext: clicking Run
[ 951s]   ext: clicked Run
[ 951s]   ext: waiting for execution_success / execution_error
[1029s]   ext: WS events=23 elapsed=78s
[1029s]     ws: {'type': 'executing', 'ts': 1778344139008}
[1029s]     ws: {'type': 'progress_state', 'ts': 1778344144398}
[1029s]     ws: {'type': 'progress_state', 'ts': 1778344144401}
[1029s]     ws: {'type': 'executing', 'ts': 1778344144410}
[1029s]     ws: {'type': 'progress_state', 'ts': 1778344210777}
[1029s]     ws: {'type': 'progress', 'ts': 1778344210782}
[1029s]     ws: {'type': 'executed', 'ts': 1778344215109}
[1029s]     ws: {'type': 'progress_state', 'ts': 1778344215246}
[1029s]     ws: {'type': 'progress_state', 'ts': 1778344215258}
[1029s]     ws: {'type': 'executing', 'ts': 1778344215258}
[1029s]     ws: {'type': 'executed', 'ts': 1778344215865}
[1029s]     ws: {'type': 'progress_state', 'ts': 1778344215877}
[1029s]     ws: {'type': 'execution_success', 'ts': 1778344215883}
[1029s]     ws: {'type': 'status', 'ts': 1778344215885}
[1029s]     ws: {'type': 'executing', 'ts': 1778344215885}
[1029s]   ext: execution_success after 78s
[1035s] Captured 1192 frames
[1035s] Wrote D:\a\comfy-gpu-ci\comfy-gpu-ci\comfy-test-logs\results.json (4 workflow(s))
ffmpeg version 7.1-essentials_build-www.gyan.dev Copyright (c) 2000-2024 the FFmpeg developers
  built with gcc 14.2.0 (Rev1, Built by MSYS2 project)
  configuration: --enable-gpl --enable-version3 --enable-static --disable-w32threads --disable-autodetect --enable-fontconfig --enable-iconv --enable-gnutls --enable-libxml2 --enable-gmp --enable-bzlib --enable-lzma --enable-zlib --enable-libsrt --enable-libssh --enable-libzmq --enable-avisynth --enable-sdl2 --enable-libwebp --enable-libx264 --enable-libx265 --enable-libxvid --enable-libaom --enable-libopenjpeg --enable-libvpx --enable-mediafoundation --enable-libass --enable-libfreetype --enable-libfribidi --enable-libharfbuzz --enable-libvidstab --enable-libvmaf --enable-libzimg --enable-amf --enable-cuda-llvm --enable-cuvid --enable-dxva2 --enable-d3d11va --enable-d3d12va --enable-ffnvcodec --enable-libvpl --enable-nvdec --enable-nvenc --enable-vaapi --enable-libgme --enable-libopenmpt --enable-libopencore-amrwb --enable-libmp3lame --enable-libtheora --enable-libvo-amrwbenc --enable-libgsm --enable-libopencore-amrnb --enable-libopus --enable-libspeex --enable-libvorbis --enable-librubberband
  libavutil      59. 39.100 / 59. 39.100
  libavcodec     61. 19.100 / 61. 19.100
  libavformat    61.  7.100 / 61.  7.100
  libavdevice    61.  3.100 / 61.  3.100
  libavfilter    10.  4.100 / 10.  4.100
  libswscale      8.  3.100 /  8.  3.100
  libswresample   5.  3.100 /  5.  3.100
  libpostproc    58.  3.100 / 58.  3.100
Input #0, image2, from 'D:\a\comfy-gpu-ci\comfy-gpu-ci\comfy-test-logs\debug\electron_inspect\frames\frame_%06d.png':
  Duration: 00:03:58.40, start: 0.000000, bitrate: N/A
  Stream #0:0: Video: png, rgb24(pc, gbr/bt709/iec61966-2-1), 1008x681, 5 fps, 5 tbr, 5 tbn
Stream mapping:
  Stream #0:0 -> #0:0 (png (native) -> h264 (libx264))
Press [q] to stop, [?] for help
[libx264 @ 000001a6fe1e3800] using cpu capabilities: MMX2 SSE2Fast SSSE3 SSE4.2 AVX FMA3 BMI2 AVX2
[libx264 @ 000001a6fe1e3800] profile High, level 3.1, 4:2:0, 8-bit
[libx264 @ 000001a6fe1e3800] 264 - core 164 r3192 c24e06c - H.264/MPEG-4 AVC codec - Copyleft 2003-2024 - http://www.videolan.org/x264.html - options: cabac=1 ref=3 deblock=1:0:0 analyse=0x3:0x113 me=hex subme=7 psy=1 psy_rd=1.00:0.00 mixed_ref=1 me_range=16 chroma_me=1 trellis=1 8x8dct=1 cqm=0 deadzone=21,11 fast_pskip=1 chroma_qp_offset=-2 threads=6 lookahead_threads=1 sliced_threads=0 nr=0 decimate=1 interlaced=0 bluray_compat=0 constrained_intra=0 bframes=3 b_pyramid=2 b_adapt=1 b_bias=0 direct=1 weightb=1 open_gop=0 weightp=2 keyint=250 keyint_min=5 scenecut=40 intra_refresh=0 rc_lookahead=40 rc=crf mbtree=1 crf=23.0 qcomp=0.60 qpmin=0 qpmax=69 qpstep=4 ip_ratio=1.40 aq=1:1.00
Output #0, mp4, to 'D:\a\comfy-gpu-ci\comfy-gpu-ci\comfy-test-logs\debug\electron_inspect\driver.mp4':
  Metadata:
    encoder         : Lavf61.7.100
  Stream #0:0: Video: h264 (avc1 / 0x31637661), yuv420p(tv, unknown/bt709/iec61966-2-1, progressive), 1008x682, q=2-31, 5 fps, 10240 tbn
      Metadata:
        encoder         : Lavc61.19.100 libx264
      Side data:
        cpb: bitrate max/min/avg: 0/0/0 buffer size: 0 vbv_delay: N/A
frame=    0 fps=0.0 q=0.0 size=       0KiB time=N/A bitrate=N/A speed=N/A    [vf#0:0 @ 000001a6fe60f4c0] Reconfiguring filter graph because video parameters changed to rgba(pc, gbr), 1008x681
frame=   34 fps= 32 q=23.0 size=       0KiB time=00:00:06.40 bitrate=   0.1kbits/s speed=   6x    [vf#0:0 @ 000001a6fe60f4c0] Reconfiguring filter graph because video parameters changed to rgb24(pc, gbr), 1008x681
frame=   75 fps= 47 q=23.0 size=     256KiB time=00:00:14.60 bitrate= 143.7kbits/s speed=9.05x    frame=  138 fps= 65 q=23.0 size=     512KiB time=00:00:27.20 bitrate= 154.2kbits/s speed=12.8x    frame=  204 fps= 78 q=23.0 size=     512KiB time=00:00:40.40 bitrate= 103.8kbits/s speed=15.3x    [vf#0:0 @ 000001a6fe60f4c0] Reconfiguring filter graph because video parameters changed to rgba(pc, gbr), 1008x681
frame=  274 fps= 87 q=23.0 size=     512KiB time=00:00:54.40 bitrate=  77.1kbits/s speed=17.3x    [vf#0:0 @ 000001a6fe60f4c0] Reconfiguring filter graph because video parameters changed to rgb24(pc, gbr), 1008x681
frame=  316 fps= 86 q=23.0 size=     768KiB time=00:01:02.80 bitrate= 100.2kbits/s speed=17.1x    frame=  357 fps= 85 q=23.0 size=    1024KiB time=00:01:11.00 bitrate= 118.2kbits/s speed=  17x    frame=  415 fps= 88 q=23.0 size=    1024KiB time=00:01:22.60 bitrate= 101.6kbits/s speed=17.6x    frame=  493 fps= 94 q=23.0 size=    1024KiB time=00:01:38.20 bitrate=  85.4kbits/s speed=18.7x    [vf#0:0 @ 000001a6fe60f4c0] Reconfiguring filter graph because video parameters changed to rgba(pc, gbr), 1008x681
[vf#0:0 @ 000001a6fe60f4c0] Reconfiguring filter graph because video parameters changed to rgb24(pc, gbr), 1008x681
frame=  547 fps= 95 q=23.0 size=    1024KiB time=00:01:49.00 bitrate=  77.0kbits/s speed=18.9x    frame=  593 fps= 94 q=23.0 size=    1536KiB time=00:01:58.20 bitrate= 106.5kbits/s speed=18.8x    frame=  675 fps= 99 q=23.0 size=    1536KiB time=00:02:14.60 bitrate=  93.5kbits/s speed=19.7x    [vf#0:0 @ 000001a6fe60f4c0] Reconfiguring filter graph because video parameters changed to rgba(pc, gbr), 1008x681
frame=  733 fps= 99 q=23.0 size=    1536KiB time=00:02:26.20 bitrate=  86.1kbits/s speed=19.8x    [vf#0:0 @ 000001a6fe60f4c0] Reconfiguring filter graph because video parameters changed to rgb24(pc, gbr), 1008x681
frame=  779 fps= 99 q=23.0 size=    1792KiB time=00:02:35.40 bitrate=  94.5kbits/s speed=19.7x    frame=  843 fps=100 q=23.0 size=    2048KiB time=00:02:48.20 bitrate=  99.7kbits/s speed=  20x    frame=  933 fps=105 q=23.0 size=    2048KiB time=00:03:06.20 bitrate=  90.1kbits/s speed=20.9x    [vf#0:0 @ 000001a6fe60f4c0] Reconfiguring filter graph because video parameters changed to rgba(pc, gbr), 1008x681
[vf#0:0 @ 000001a6fe60f4c0] Reconfiguring filter graph because video parameters changed to rgb24(pc, gbr), 1008x681
frame=  997 fps=106 q=23.0 size=    2048KiB time=00:03:19.00 bitrate=  84.3kbits/s speed=21.1x    frame= 1049 fps=105 q=23.0 size=    2560KiB time=00:03:29.40 bitrate= 100.2kbits/s speed=  21x    frame= 1119 fps=107 q=23.0 size=    2560KiB time=00:03:43.40 bitrate=  93.9kbits/s speed=21.4x    [out#0/mp4 @ 000001a6fe2a9b80] video:2707KiB audio:0KiB subtitle:0KiB other streams:0KiB global headers:0KiB muxing overhead: 0.538742%
frame= 1192 fps=111 q=-1.0 Lsize=    2722KiB time=00:03:58.00 bitrate=  93.7kbits/s speed=22.2x    
[libx264 @ 000001a6fe1e3800] frame I:21    Avg QP: 7.49  size: 38420
[libx264 @ 000001a6fe1e3800] frame P:335   Avg QP:15.10  size:  4183
[libx264 @ 000001a6fe1e3800] frame B:836   Avg QP:22.30  size:   674
[libx264 @ 000001a6fe1e3800] consecutive B-frames:  4.8%  4.0%  3.3% 87.9%
[libx264 @ 000001a6fe1e3800] mb I  I16..4: 59.7% 14.9% 25.4%
[libx264 @ 000001a6fe1e3800] mb P  I16..4:  2.9%  2.5%  2.5%  P16..4:  1.9%  0.6%  0.4%  0.0%  0.0%    skip:89.1%
[libx264 @ 000001a6fe1e3800] mb B  I16..4:  0.4%  0.3%  0.1%  B16..8:  3.9%  0.4%  0.1%  direct: 0.1%  skip:94.7%  L0:59.6% L1:37.9% BI: 2.5%
[libx264 @ 000001a6fe1e3800] 8x8 transform intra:25.2% inter:52.0%
[libx264 @ 000001a6fe1e3800] coded y,uvDC,uvAC intra: 34.0% 17.2% 13.9% inter: 0.8% 0.6% 0.2%
[libx264 @ 000001a6fe1e3800] i16 v,h,dc,p: 69% 28%  2%  2%
[libx264 @ 000001a6fe1e3800] i8 v,h,dc,ddl,ddr,vr,hd,vl,hu: 37% 17% 32%  2%  2%  2%  2%  2%  3%
[libx264 @ 000001a6fe1e3800] i4 v,h,dc,ddl,ddr,vr,hd,vl,hu: 37% 32% 14%  2%  3%  3%  4%  3%  4%
[libx264 @ 000001a6fe1e3800] i8c dc,h,v,p: 80% 11%  6%  3%
[libx264 @ 000001a6fe1e3800] Weighted P-Frames: Y:2.1% UV:1.5%
[libx264 @ 000001a6fe1e3800] ref P L0: 67.0%  4.9% 18.5%  9.4%  0.2%
[libx264 @ 000001a6fe1e3800] ref B L0: 62.8% 35.9%  1.3%
[libx264 @ 000001a6fe1e3800] ref B L1: 97.1%  2.9%
[libx264 @ 000001a6fe1e3800] kb/s:93.00
[1047s] Wrote D:\a\comfy-gpu-ci\comfy-gpu-ci\comfy-test-logs\debug\electron_inspect\driver.mp4
ffmpeg version 7.1-essentials_build-www.gyan.dev Copyright (c) 2000-2024 the FFmpeg developers
  built with gcc 14.2.0 (Rev1, Built by MSYS2 project)
  configuration: --enable-gpl --enable-version3 --enable-static --disable-w32threads --disable-autodetect --enable-fontconfig --enable-iconv --enable-gnutls --enable-libxml2 --enable-gmp --enable-bzlib --enable-lzma --enable-zlib --enable-libsrt --enable-libssh --enable-libzmq --enable-avisynth --enable-sdl2 --enable-libwebp --enable-libx264 --enable-libx265 --enable-libxvid --enable-libaom --enable-libopenjpeg --enable-libvpx --enable-mediafoundation --enable-libass --enable-libfreetype --enable-libfribidi --enable-libharfbuzz --enable-libvidstab --enable-libvmaf --enable-libzimg --enable-amf --enable-cuda-llvm --enable-cuvid --enable-dxva2 --enable-d3d11va --enable-d3d12va --enable-ffnvcodec --enable-libvpl --enable-nvdec --enable-nvenc --enable-vaapi --enable-libgme --enable-libopenmpt --enable-libopencore-amrwb --enable-libmp3lame --enable-libtheora --enable-libvo-amrwbenc --enable-libgsm --enable-libopencore-amrnb --enable-libopus --enable-libspeex --enable-libvorbis --enable-librubberband
  libavutil      59. 39.100 / 59. 39.100
  libavcodec     61. 19.100 / 61. 19.100
  libavformat    61.  7.100 / 61.  7.100
  libavdevice    61.  3.100 / 61.  3.100
  libavfilter    10.  4.100 / 10.  4.100
  libswscale      8.  3.100 /  8.  3.100
  libswresample   5.  3.100 /  5.  3.100
  libpostproc    58.  3.100 / 58.  3.100
Input #0, image2, from 'D:\a\comfy-gpu-ci\comfy-gpu-ci\comfy-test-logs\debug\electron_inspect\frames\frame_%06d.png':
  Duration: 00:02:45.00, start: 0.000000, bitrate: N/A
  Stream #0:0: Video: png, rgb24(pc, gbr/bt709/iec61966-2-1), 1008x681, 5 fps, 5 tbr, 5 tbn
Stream mapping:
  Stream #0:0 -> #0:0 (png (native) -> h264 (libx264))
Press [q] to stop, [?] for help
[libx264 @ 0000019d6d99e3c0] using cpu capabilities: MMX2 SSE2Fast SSSE3 SSE4.2 AVX FMA3 BMI2 AVX2
[libx264 @ 0000019d6d99e3c0] profile High, level 3.1, 4:2:0, 8-bit
[libx264 @ 0000019d6d99e3c0] 264 - core 164 r3192 c24e06c - H.264/MPEG-4 AVC codec - Copyleft 2003-2024 - http://www.videolan.org/x264.html - options: cabac=1 ref=3 deblock=1:0:0 analyse=0x3:0x113 me=hex subme=7 psy=1 psy_rd=1.00:0.00 mixed_ref=1 me_range=16 chroma_me=1 trellis=1 8x8dct=1 cqm=0 deadzone=21,11 fast_pskip=1 chroma_qp_offset=-2 threads=6 lookahead_threads=1 sliced_threads=0 nr=0 decimate=1 interlaced=0 bluray_compat=0 constrained_intra=0 bframes=3 b_pyramid=2 b_adapt=1 b_bias=0 direct=1 weightb=1 open_gop=0 weightp=2 keyint=250 keyint_min=5 scenecut=40 intra_refresh=0 rc_lookahead=40 rc=crf mbtree=1 crf=23.0 qcomp=0.60 qpmin=0 qpmax=69 qpstep=4 ip_ratio=1.40 aq=1:1.00
Output #0, mp4, to 'D:\a\comfy-gpu-ci\comfy-gpu-ci\comfy-test-logs\videos\image_seg_point\driver.mp4':
  Metadata:
    encoder         : Lavf61.7.100
  Stream #0:0: Video: h264 (avc1 / 0x31637661), yuv420p(tv, unknown/bt709/iec61966-2-1, progressive), 1008x682, q=2-31, 5 fps, 10240 tbn
      Metadata:
        encoder         : Lavc61.19.100 libx264
      Side data:
        cpb: bitrate max/min/avg: 0/0/0 buffer size: 0 vbv_delay: N/A
frame=   32 fps=0.0 q=23.0 size=       0KiB time=00:00:06.00 bitrate=   0.1kbits/s speed=11.6x    frame=  101 fps= 99 q=23.0 size=       0KiB time=00:00:19.80 bitrate=   0.0kbits/s speed=19.3x    [out#0/mp4 @ 0000019d6d94a500] video:113KiB audio:0KiB subtitle:0KiB other streams:0KiB global headers:0KiB muxing overhead: 2.539849%
frame=  174 fps=127 q=-1.0 Lsize=     116KiB time=00:00:34.40 bitrate=  27.7kbits/s speed=25.1x    
[libx264 @ 0000019d6d99e3c0] frame I:1     Avg QP:10.96  size: 48077
[libx264 @ 0000019d6d99e3c0] frame P:44    Avg QP:13.99  size:   885
[libx264 @ 0000019d6d99e3c0] frame B:129   Avg QP:22.73  size:   221
[libx264 @ 0000019d6d99e3c0] consecutive B-frames:  1.1%  0.0%  0.0% 98.9%
[libx264 @ 0000019d6d99e3c0] mb I  I16..4: 46.1% 28.2% 25.6%
[libx264 @ 0000019d6d99e3c0] mb P  I16..4:  0.4%  0.1%  0.2%  P16..4:  1.0%  0.1%  0.0%  0.0%  0.0%    skip:98.2%
[libx264 @ 0000019d6d99e3c0] mb B  I16..4:  0.0%  0.0%  0.0%  B16..8:  6.4%  0.1%  0.0%  direct: 0.0%  skip:93.4%  L0:57.3% L1:42.5% BI: 0.2%
[libx264 @ 0000019d6d99e3c0] 8x8 transform intra:24.1% inter:52.2%
[libx264 @ 0000019d6d99e3c0] coded y,uvDC,uvAC intra: 41.3% 18.0% 14.5% inter: 0.1% 0.1% 0.0%
[libx264 @ 0000019d6d99e3c0] i16 v,h,dc,p: 53% 47%  0%  0%
[libx264 @ 0000019d6d99e3c0] i8 v,h,dc,ddl,ddr,vr,hd,vl,hu: 35% 16% 48%  0%  0%  0%  0%  0%  0%
[libx264 @ 0000019d6d99e3c0] i4 v,h,dc,ddl,ddr,vr,hd,vl,hu: 35% 35% 11%  3%  3%  3%  4%  3%  4%
[libx264 @ 0000019d6d99e3c0] i8c dc,h,v,p: 72% 20%  7%  1%
[libx264 @ 0000019d6d99e3c0] Weighted P-Frames: Y:0.0% UV:0.0%
[libx264 @ 0000019d6d99e3c0] ref P L0: 79.1%  1.0% 16.1%  3.8%
[libx264 @ 0000019d6d99e3c0] ref B L0: 48.4% 51.2%  0.4%
[libx264 @ 0000019d6d99e3c0] ref B L1: 98.5%  1.5%
[libx264 @ 0000019d6d99e3c0] kb/s:26.55
[1048s]   videos/image_seg_point/driver.mp4 placed (frames 368..541)
[1048s]   screenshots/image_seg_point_executed.png placed
ffmpeg version 7.1-essentials_build-www.gyan.dev Copyright (c) 2000-2024 the FFmpeg developers
  built with gcc 14.2.0 (Rev1, Built by MSYS2 project)
  configuration: --enable-gpl --enable-version3 --enable-static --disable-w32threads --disable-autodetect --enable-fontconfig --enable-iconv --enable-gnutls --enable-libxml2 --enable-gmp --enable-bzlib --enable-lzma --enable-zlib --enable-libsrt --enable-libssh --enable-libzmq --enable-avisynth --enable-sdl2 --enable-libwebp --enable-libx264 --enable-libx265 --enable-libxvid --enable-libaom --enable-libopenjpeg --enable-libvpx --enable-mediafoundation --enable-libass --enable-libfreetype --enable-libfribidi --enable-libharfbuzz --enable-libvidstab --enable-libvmaf --enable-libzimg --enable-amf --enable-cuda-llvm --enable-cuvid --enable-dxva2 --enable-d3d11va --enable-d3d12va --enable-ffnvcodec --enable-libvpl --enable-nvdec --enable-nvenc --enable-vaapi --enable-libgme --enable-libopenmpt --enable-libopencore-amrwb --enable-libmp3lame --enable-libtheora --enable-libvo-amrwbenc --enable-libgsm --enable-libopencore-amrnb --enable-libopus --enable-libspeex --enable-libvorbis --enable-librubberband
  libavutil      59. 39.100 / 59. 39.100
  libavcodec     61. 19.100 / 61. 19.100
  libavformat    61.  7.100 / 61.  7.100
  libavdevice    61.  3.100 / 61.  3.100
  libavfilter    10.  4.100 / 10.  4.100
  libswscale      8.  3.100 /  8.  3.100
  libswresample   5.  3.100 /  5.  3.100
  libpostproc    58.  3.100 / 58.  3.100
Input #0, image2, from 'D:\a\comfy-gpu-ci\comfy-gpu-ci\comfy-test-logs\debug\electron_inspect\frames\frame_%06d.png':
  Duration: 00:02:00.40, start: 0.000000, bitrate: N/A
  Stream #0:0: Video: png, rgba(pc, gbr/bt709/iec61966-2-1), 1008x681, 5 fps, 5 tbr, 5 tbn
Stream mapping:
  Stream #0:0 -> #0:0 (png (native) -> h264 (libx264))
Press [q] to stop, [?] for help
[libx264 @ 000001a2650b3880] using cpu capabilities: MMX2 SSE2Fast SSSE3 SSE4.2 AVX FMA3 BMI2 AVX2
[libx264 @ 000001a2650b3880] profile High, level 3.1, 4:2:0, 8-bit
[libx264 @ 000001a2650b3880] 264 - core 164 r3192 c24e06c - H.264/MPEG-4 AVC codec - Copyleft 2003-2024 - http://www.videolan.org/x264.html - options: cabac=1 ref=3 deblock=1:0:0 analyse=0x3:0x113 me=hex subme=7 psy=1 psy_rd=1.00:0.00 mixed_ref=1 me_range=16 chroma_me=1 trellis=1 8x8dct=1 cqm=0 deadzone=21,11 fast_pskip=1 chroma_qp_offset=-2 threads=6 lookahead_threads=1 sliced_threads=0 nr=0 decimate=1 interlaced=0 bluray_compat=0 constrained_intra=0 bframes=3 b_pyramid=2 b_adapt=1 b_bias=0 direct=1 weightb=1 open_gop=0 weightp=2 keyint=250 keyint_min=5 scenecut=40 intra_refresh=0 rc_lookahead=40 rc=crf mbtree=1 crf=23.0 qcomp=0.60 qpmin=0 qpmax=69 qpstep=4 ip_ratio=1.40 aq=1:1.00
Output #0, mp4, to 'D:\a\comfy-gpu-ci\comfy-gpu-ci\comfy-test-logs\videos\image_seg_text\driver.mp4':
  Metadata:
    encoder         : Lavf61.7.100
  Stream #0:0: Video: h264 (avc1 / 0x31637661), yuv420p(tv, unknown/bt709/iec61966-2-1, progressive), 1008x682, q=2-31, 5 fps, 10240 tbn
      Metadata:
        encoder         : Lavc61.19.100 libx264
      Side data:
        cpb: bitrate max/min/avg: 0/0/0 buffer size: 0 vbv_delay: N/A
[vf#0:0 @ 000001a2650b4400] Reconfiguring filter graph because video parameters changed to rgb24(pc, gbr), 1008x681
frame=   31 fps=0.0 q=23.0 size=       0KiB time=00:00:05.80 bitrate=   0.1kbits/s speed=11.3x    frame=  117 fps=113 q=23.0 size=       0KiB time=N/A bitrate=N/A speed=N/A    [out#0/mp4 @ 000001a2650ba380] video:126KiB audio:0KiB subtitle:0KiB other streams:0KiB global headers:0KiB muxing overhead: 2.174267%
frame=  162 fps=137 q=-1.0 Lsize=     129KiB time=00:00:32.00 bitrate=  33.0kbits/s speed=27.1x    
[libx264 @ 000001a2650b3880] frame I:2     Avg QP:12.26  size: 43904
[libx264 @ 000001a2650b3880] frame P:41    Avg QP:15.38  size:   807
[libx264 @ 000001a2650b3880] frame B:119   Avg QP:23.45  size:    63
[libx264 @ 000001a2650b3880] consecutive B-frames:  1.2%  2.5%  0.0% 96.3%
[libx264 @ 000001a2650b3880] mb I  I16..4: 46.6% 25.9% 27.6%
[libx264 @ 000001a2650b3880] mb P  I16..4:  0.4%  0.1%  0.3%  P16..4:  0.5%  0.1%  0.1%  0.0%  0.0%    skip:98.5%
[libx264 @ 000001a2650b3880] mb B  I16..4:  0.0%  0.0%  0.0%  B16..8:  0.7%  0.0%  0.0%  direct: 0.0%  skip:99.2%  L0:45.3% L1:54.5% BI: 0.3%
[libx264 @ 000001a2650b3880] 8x8 transform intra:23.5% inter:66.9%
[libx264 @ 000001a2650b3880] coded y,uvDC,uvAC intra: 42.1% 21.9% 17.9% inter: 0.1% 0.1% 0.0%
[libx264 @ 000001a2650b3880] i16 v,h,dc,p: 53% 41%  0%  6%
[libx264 @ 000001a2650b3880] i8 v,h,dc,ddl,ddr,vr,hd,vl,hu: 51% 19% 25%  0%  2%  1%  1%  0%  1%
[libx264 @ 000001a2650b3880] i4 v,h,dc,ddl,ddr,vr,hd,vl,hu: 40% 34% 11%  2%  3%  2%  3%  2%  3%
[libx264 @ 000001a2650b3880] i8c dc,h,v,p: 69% 16%  9%  6%
[libx264 @ 000001a2650b3880] Weighted P-Frames: Y:0.0% UV:0.0%
[libx264 @ 000001a2650b3880] ref P L0: 83.2%  1.6% 10.1%  5.2%
[libx264 @ 000001a2650b3880] ref B L0: 59.1% 39.0%  1.9%
[libx264 @ 000001a2650b3880] ref B L1: 87.5% 12.5%
[libx264 @ 000001a2650b3880] kb/s:31.71
[1050s]   videos/image_seg_text/driver.mp4 placed (frames 591..752)
[1050s]   screenshots/image_seg_text_executed.png placed
ffmpeg version 7.1-essentials_build-www.gyan.dev Copyright (c) 2000-2024 the FFmpeg developers
  built with gcc 14.2.0 (Rev1, Built by MSYS2 project)
  configuration: --enable-gpl --enable-version3 --enable-static --disable-w32threads --disable-autodetect --enable-fontconfig --enable-iconv --enable-gnutls --enable-libxml2 --enable-gmp --enable-bzlib --enable-lzma --enable-zlib --enable-libsrt --enable-libssh --enable-libzmq --enable-avisynth --enable-sdl2 --enable-libwebp --enable-libx264 --enable-libx265 --enable-libxvid --enable-libaom --enable-libopenjpeg --enable-libvpx --enable-mediafoundation --enable-libass --enable-libfreetype --enable-libfribidi --enable-libharfbuzz --enable-libvidstab --enable-libvmaf --enable-libzimg --enable-amf --enable-cuda-llvm --enable-cuvid --enable-dxva2 --enable-d3d11va --enable-d3d12va --enable-ffnvcodec --enable-libvpl --enable-nvdec --enable-nvenc --enable-vaapi --enable-libgme --enable-libopenmpt --enable-libopencore-amrwb --enable-libmp3lame --enable-libtheora --enable-libvo-amrwbenc --enable-libgsm --enable-libopencore-amrnb --enable-libopus --enable-libspeex --enable-libvorbis --enable-librubberband
  libavutil      59. 39.100 / 59. 39.100
  libavcodec     61. 19.100 / 61. 19.100
  libavformat    61.  7.100 / 61.  7.100
  libavdevice    61.  3.100 / 61.  3.100
  libavfilter    10.  4.100 / 10.  4.100
  libswscale      8.  3.100 /  8.  3.100
  libswresample   5.  3.100 /  5.  3.100
  libpostproc    58.  3.100 / 58.  3.100
Input #0, image2, from 'D:\a\comfy-gpu-ci\comfy-gpu-ci\comfy-test-logs\debug\electron_inspect\frames\frame_%06d.png':
  Duration: 00:01:18.00, start: 0.000000, bitrate: N/A
  Stream #0:0: Video: png, rgb24(pc, gbr/bt709/iec61966-2-1), 1008x681, 5 fps, 5 tbr, 5 tbn
Stream mapping:
  Stream #0:0 -> #0:0 (png (native) -> h264 (libx264))
Press [q] to stop, [?] for help
[libx264 @ 000001e415af2ac0] using cpu capabilities: MMX2 SSE2Fast SSSE3 SSE4.2 AVX FMA3 BMI2 AVX2
[libx264 @ 000001e415af2ac0] profile High, level 3.1, 4:2:0, 8-bit
[libx264 @ 000001e415af2ac0] 264 - core 164 r3192 c24e06c - H.264/MPEG-4 AVC codec - Copyleft 2003-2024 - http://www.videolan.org/x264.html - options: cabac=1 ref=3 deblock=1:0:0 analyse=0x3:0x113 me=hex subme=7 psy=1 psy_rd=1.00:0.00 mixed_ref=1 me_range=16 chroma_me=1 trellis=1 8x8dct=1 cqm=0 deadzone=21,11 fast_pskip=1 chroma_qp_offset=-2 threads=6 lookahead_threads=1 sliced_threads=0 nr=0 decimate=1 interlaced=0 bluray_compat=0 constrained_intra=0 bframes=3 b_pyramid=2 b_adapt=1 b_bias=0 direct=1 weightb=1 open_gop=0 weightp=2 keyint=250 keyint_min=5 scenecut=40 intra_refresh=0 rc_lookahead=40 rc=crf mbtree=1 crf=23.0 qcomp=0.60 qpmin=0 qpmax=69 qpstep=4 ip_ratio=1.40 aq=1:1.00
Output #0, mp4, to 'D:\a\comfy-gpu-ci\comfy-gpu-ci\comfy-test-logs\videos\scene_seg\driver.mp4':
  Metadata:
    encoder         : Lavf61.7.100
  Stream #0:0: Video: h264 (avc1 / 0x31637661), yuv420p(tv, unknown/bt709/iec61966-2-1, progressive), 1008x682, q=2-31, 5 fps, 10240 tbn
      Metadata:
        encoder         : Lavc61.19.100 libx264
      Side data:
        cpb: bitrate max/min/avg: 0/0/0 buffer size: 0 vbv_delay: N/A
frame=   27 fps=0.0 q=23.0 size=       0KiB time=00:00:05.00 bitrate=   0.1kbits/s speed=9.84x    frame=  105 fps=103 q=23.0 size=       0KiB time=00:00:20.60 bitrate=   0.0kbits/s speed=20.2x    [out#0/mp4 @ 000001e415afa500] video:135KiB audio:0KiB subtitle:0KiB other streams:0KiB global headers:0KiB muxing overhead: 2.224644%
frame=  185 fps=143 q=-1.0 Lsize=     138KiB time=00:00:36.60 bitrate=  31.0kbits/s speed=28.3x    
[libx264 @ 000001e415af2ac0] frame I:2     Avg QP:12.75  size: 34272
[libx264 @ 000001e415af2ac0] frame P:47    Avg QP:13.81  size:  1168
[libx264 @ 000001e415af2ac0] frame B:136   Avg QP:23.35  size:   106
[libx264 @ 000001e415af2ac0] consecutive B-frames:  1.6%  1.1%  0.0% 97.3%
[libx264 @ 000001e415af2ac0] mb I  I16..4: 46.2% 31.2% 22.6%
[libx264 @ 000001e415af2ac0] mb P  I16..4:  0.4%  0.1%  0.4%  P16..4:  0.7%  0.1%  0.1%  0.0%  0.0%    skip:98.1%
[libx264 @ 000001e415af2ac0] mb B  I16..4:  0.0%  0.1%  0.0%  B16..8:  0.8%  0.0%  0.0%  direct: 0.0%  skip:98.9%  L0:55.3% L1:43.2% BI: 1.5%
[libx264 @ 000001e415af2ac0] 8x8 transform intra:29.4% inter:57.4%
[libx264 @ 000001e415af2ac0] coded y,uvDC,uvAC intra: 18.3% 22.4% 17.8% inter: 0.1% 0.1% 0.0%
[libx264 @ 000001e415af2ac0] i16 v,h,dc,p: 55% 38%  0%  6%
[libx264 @ 000001e415af2ac0] i8 v,h,dc,ddl,ddr,vr,hd,vl,hu: 58% 11% 26%  0%  2%  1%  1%  0%  0%
[libx264 @ 000001e415af2ac0] i4 v,h,dc,ddl,ddr,vr,hd,vl,hu: 32% 36% 14%  2%  3%  3%  4%  2%  4%
[libx264 @ 000001e415af2ac0] i8c dc,h,v,p: 67% 17% 10%  5%
[libx264 @ 000001e415af2ac0] Weighted P-Frames: Y:0.0% UV:0.0%
[libx264 @ 000001e415af2ac0] ref P L0: 85.4%  3.0% 10.1%  1.4%
[libx264 @ 000001e415af2ac0] ref B L0: 77.4% 20.9%  1.7%
[libx264 @ 000001e415af2ac0] ref B L1: 95.1%  4.9%
[libx264 @ 000001e415af2ac0] kb/s:29.82
[1051s]   videos/scene_seg/driver.mp4 placed (frames 803..987)
[1051s]   screenshots/scene_seg_executed.png placed
ffmpeg version 7.1-essentials_build-www.gyan.dev Copyright (c) 2000-2024 the FFmpeg developers
  built with gcc 14.2.0 (Rev1, Built by MSYS2 project)
  configuration: --enable-gpl --enable-version3 --enable-static --disable-w32threads --disable-autodetect --enable-fontconfig --enable-iconv --enable-gnutls --enable-libxml2 --enable-gmp --enable-bzlib --enable-lzma --enable-zlib --enable-libsrt --enable-libssh --enable-libzmq --enable-avisynth --enable-sdl2 --enable-libwebp --enable-libx264 --enable-libx265 --enable-libxvid --enable-libaom --enable-libopenjpeg --enable-libvpx --enable-mediafoundation --enable-libass --enable-libfreetype --enable-libfribidi --enable-libharfbuzz --enable-libvidstab --enable-libvmaf --enable-libzimg --enable-amf --enable-cuda-llvm --enable-cuvid --enable-dxva2 --enable-d3d11va --enable-d3d12va --enable-ffnvcodec --enable-libvpl --enable-nvdec --enable-nvenc --enable-vaapi --enable-libgme --enable-libopenmpt --enable-libopencore-amrwb --enable-libmp3lame --enable-libtheora --enable-libvo-amrwbenc --enable-libgsm --enable-libopencore-amrnb --enable-libopus --enable-libspeex --enable-libvorbis --enable-librubberband
  libavutil      59. 39.100 / 59. 39.100
  libavcodec     61. 19.100 / 61. 19.100
  libavformat    61.  7.100 / 61.  7.100
  libavdevice    61.  3.100 / 61.  3.100
  libavfilter    10.  4.100 / 10.  4.100
  libswscale      8.  3.100 /  8.  3.100
  libswresample   5.  3.100 /  5.  3.100
  libpostproc    58.  3.100 / 58.  3.100
Input #0, image2, from 'D:\a\comfy-gpu-ci\comfy-gpu-ci\comfy-test-logs\debug\electron_inspect\frames\frame_%06d.png':
  Duration: 00:00:31.40, start: 0.000000, bitrate: N/A
  Stream #0:0: Video: png, rgb24(pc, gbr/bt709/iec61966-2-1), 1008x681, 5 fps, 5 tbr, 5 tbn
Stream mapping:
  Stream #0:0 -> #0:0 (png (native) -> h264 (libx264))
Press [q] to stop, [?] for help
[libx264 @ 000001c812efcfc0] using cpu capabilities: MMX2 SSE2Fast SSSE3 SSE4.2 AVX FMA3 BMI2 AVX2
[libx264 @ 000001c812efcfc0] profile High, level 3.1, 4:2:0, 8-bit
[libx264 @ 000001c812efcfc0] 264 - core 164 r3192 c24e06c - H.264/MPEG-4 AVC codec - Copyleft 2003-2024 - http://www.videolan.org/x264.html - options: cabac=1 ref=3 deblock=1:0:0 analyse=0x3:0x113 me=hex subme=7 psy=1 psy_rd=1.00:0.00 mixed_ref=1 me_range=16 chroma_me=1 trellis=1 8x8dct=1 cqm=0 deadzone=21,11 fast_pskip=1 chroma_qp_offset=-2 threads=6 lookahead_threads=1 sliced_threads=0 nr=0 decimate=1 interlaced=0 bluray_compat=0 constrained_intra=0 bframes=3 b_pyramid=2 b_adapt=1 b_bias=0 direct=1 weightb=1 open_gop=0 weightp=2 keyint=250 keyint_min=5 scenecut=40 intra_refresh=0 rc_lookahead=40 rc=crf mbtree=1 crf=23.0 qcomp=0.60 qpmin=0 qpmax=69 qpstep=4 ip_ratio=1.40 aq=1:1.00
Output #0, mp4, to 'D:\a\comfy-gpu-ci\comfy-gpu-ci\comfy-test-logs\videos\scene_seg_interactive\driver.mp4':
  Metadata:
    encoder         : Lavf61.7.100
  Stream #0:0: Video: h264 (avc1 / 0x31637661), yuv420p(tv, unknown/bt709/iec61966-2-1, progressive), 1008x682, q=2-31, 5 fps, 10240 tbn
      Metadata:
        encoder         : Lavc61.19.100 libx264
      Side data:
        cpb: bitrate max/min/avg: 0/0/0 buffer size: 0 vbv_delay: N/A
frame=   32 fps=0.0 q=23.0 size=       0KiB time=00:00:06.00 bitrate=   0.1kbits/s speed=11.9x    frame=  126 fps=123 q=23.0 size=       0KiB time=N/A bitrate=N/A speed=N/A    [out#0/mp4 @ 000001c81275a500] video:137KiB audio:0KiB subtitle:0KiB other streams:0KiB global headers:0KiB muxing overhead: 1.953916%
frame=  157 fps=138 q=-1.0 Lsize=     140KiB time=00:00:31.00 bitrate=  36.9kbits/s speed=27.3x    
[libx264 @ 000001c812efcfc0] frame I:2     Avg QP:11.99  size: 33813
[libx264 @ 000001c812efcfc0] frame P:40    Avg QP:13.93  size:  1333
[libx264 @ 000001c812efcfc0] frame B:115   Avg QP:20.64  size:   161
[libx264 @ 000001c812efcfc0] consecutive B-frames:  1.9%  1.3%  0.0% 96.8%
[libx264 @ 000001c812efcfc0] mb I  I16..4: 43.7% 33.5% 22.8%
[libx264 @ 000001c812efcfc0] mb P  I16..4:  0.8%  0.2%  0.5%  P16..4:  1.0%  0.1%  0.1%  0.0%  0.0%    skip:97.4%
[libx264 @ 000001c812efcfc0] mb B  I16..4:  0.0%  0.0%  0.0%  B16..8:  5.8%  0.1%  0.0%  direct: 0.0%  skip:94.1%  L0:73.6% L1:26.3% BI: 0.1%
[libx264 @ 000001c812efcfc0] 8x8 transform intra:29.8% inter:73.0%
[libx264 @ 000001c812efcfc0] coded y,uvDC,uvAC intra: 26.4% 20.5% 16.5% inter: 0.1% 0.1% 0.0%
[libx264 @ 000001c812efcfc0] i16 v,h,dc,p: 50% 43%  1%  6%
[libx264 @ 000001c812efcfc0] i8 v,h,dc,ddl,ddr,vr,hd,vl,hu: 39% 19% 37%  0%  1%  1%  1%  0%  0%
[libx264 @ 000001c812efcfc0] i4 v,h,dc,ddl,ddr,vr,hd,vl,hu: 35% 35% 13%  2%  3%  3%  3%  2%  3%
[libx264 @ 000001c812efcfc0] i8c dc,h,v,p: 71% 15%  9%  5%
[libx264 @ 000001c812efcfc0] Weighted P-Frames: Y:0.0% UV:0.0%
[libx264 @ 000001c812efcfc0] ref P L0: 78.3%  1.0% 15.2%  5.5%
[libx264 @ 000001c812efcfc0] ref B L0: 28.7% 70.9%  0.3%
[libx264 @ 000001c812efcfc0] ref B L1: 98.9%  1.1%
[libx264 @ 000001c812efcfc0] kb/s:35.54
[1052s]   videos/scene_seg_interactive/driver.mp4 placed (frames 1036..1192)
[1052s]   screenshots/scene_seg_interactive_executed.png placed
[1052s]   removed D:\a\comfy-gpu-ci\comfy-gpu-ci\comfy-test-logs\debug\electron_inspect\frames after successful encode
